<svg xmlns="http://www.w3.org/2000/svg" width="23" height="19.178" viewBox="0 0 23 19.178">
  <path id="ic_GH" d="M23.53,177.451c.045-.043-.225-.77,0-1.027.045.022,1.575,0,1.575,0s-.237.727.315,1.027a1,1,0,0,0,1.035,0,.9.9,0,0,0,.36-.985c.011-.031,0-.042,0-.042h1.619l.046.086a2.541,2.541,0,0,1-2.43,2.652c-.008.01-.042.016-.1.016A2.743,2.743,0,0,1,23.53,177.451Zm16.018.3a1.658,1.658,0,0,1,1.35-.9.858.858,0,0,0,.945.77A.891.891,0,0,0,42.7,176.6c.068.022,1.574,0,1.574,0a2.466,2.466,0,0,1-2.294,2.567c.007.007-.032.013-.1.013A2.591,2.591,0,0,1,39.548,177.75Zm-.855-.642h0Zm0,0H29.469a.6.6,0,0,1-.27-.342c.008-.056,0-.494,0-.513,0,0-.181-.449-.494-.514-.011.006-.468.01-1.4.01-1.566,0-3.937-.01-3.96-.01a.867.867,0,0,1-.584-.428.869.869,0,0,0,.006-.087,3.856,3.856,0,0,1,.533-2.05.8.8,0,0,0,.06-.077c.148-.2.493-.661.885-.737v-.043H23.215A1.623,1.623,0,0,1,22,171.078c.007-.023,0-2.729,0-3.038,0-.008.013-.873,1.216-1.2h3.329a1.7,1.7,0,0,1,1.215,1.111v2.994h1.575a1.049,1.049,0,0,1-.855-.941l.539-5a1.442,1.442,0,0,1,1.215-.856,2.1,2.1,0,0,0,.425.02c.415,0,.994-.017,1.059-.02a1.465,1.465,0,0,1,.766.471c.023.064,1.337,1.4,1.35,1.411l1.934.257c.039.021.364.2.406.3.047,0,.846-.254.854-.257l.855-.684a1.181,1.181,0,0,1,.4-.171,3.1,3.1,0,0,1,.326-.008c.332,0,.8.008.8.008s.673.2.54,1.711c0,0,0,0,0,.01a1.239,1.239,0,0,1-.451.632c-.014.012-.907.041-.945.043l2.61,5.09h.013c.027,0,.089,0,.181,0,.729,0,3.146.164,3.631,2.271a.353.353,0,0,1-.025.22.53.53,0,0,1-.379.293c-.008.006-.249.01-.739.01-.829,0-2.083-.01-2.1-.01a4.369,4.369,0,0,0-2.7,1.156C39.047,176.9,38.73,177.088,38.694,177.108ZM33.789,168.9a1.5,1.5,0,0,1,1.17,1.241v3.55h.854a1.532,1.532,0,0,1,.18.043c.419.248.378.534.363.641a.1.1,0,0,0,0,.043.606.606,0,0,1-.586.6v.043s.274.011.472.011a.944.944,0,0,0,.2-.011.9.9,0,0,0,.11.007.985.985,0,0,0,.768-.451.242.242,0,0,1,.023-.027,1.675,1.675,0,0,0,.317-1.024l0,0a5.662,5.662,0,0,0-.3-1.875c-.008-.028-.013-.045-.014-.049a1.188,1.188,0,0,1-.142-.875c0-.009.005-.017.006-.023a3.265,3.265,0,0,1,.495-.9l-.9-2.31-.172.033c-.2.038-.491.094-.5.094a.9.9,0,0,1-.541.3h-.009c-.309-.032-1.852-.189-1.925-.212a2.118,2.118,0,0,1-.81-.257l-1.035-1.068-.225,2.479h0l.223,0c.334,0,.954-.008,1.409-.008C33.592,168.885,33.782,168.889,33.789,168.9Zm-2.16,2.1a.62.62,0,0,1,.45.428c0,.076.017.715,0,.771a.525.525,0,0,1-.54.47c-.232.071-.445.427-.56.619a.679.679,0,0,1-.07.108,1.149,1.149,0,0,0,.2,1.07.211.211,0,0,1,.029.042,1.867,1.867,0,0,0,1.035.556s.57,0,.941,0c.278,0,.317,0,.319,0-.436,0-.628-.551-.63-.556V170.95H31.584C31.6,170.966,31.622,170.992,31.629,170.992ZM23.08,168c0,.031-.023,3.07,0,3.123.022.154.078.176.11.176a.05.05,0,0,0,.026-.005h3.329c.077,0,.134-.127.134-.128V168a.161.161,0,0,0-.134-.127H25.6v1.667l-.72-.642-.72.685v-1.71l-.111,0c-.139,0-.373.006-.55.006a1.425,1.425,0,0,1-.239-.008A.173.173,0,0,0,23.08,168Zm6.115-6.312A1.738,1.738,0,0,1,30.976,160a1.827,1.827,0,0,1,1.433.684h1.559c.026.014.24.144.248.329.005.121-.078.241-.248.355,0,0-.007,0-.318,0s-.748,0-.894,0h-.032a1.613,1.613,0,0,1,.032.318,1.784,1.784,0,0,1-3.563,0Z" transform="translate(-22 -160)" fill="#fff"/>
</svg>
