<?xml version="1.0" encoding="utf-8"?>
<!-- Generator: Adobe Illustrator 22.0.0, SVG Export Plug-In . SVG Version: 6.00 Build 0)  -->
<svg version="1.1" id="Layer_1" xmlns="http://www.w3.org/2000/svg" xmlns:xlink="http://www.w3.org/1999/xlink" x="0px" y="0px"
	 viewBox="0 0 56 45" style="enable-background:new 0 0 56 45;" xml:space="preserve">
<style type="text/css">
	.st0{fill:#FFFFFF;}
	.st1{fill:#FF0000;}
	.st2{enable-background:new    ;}
</style>
<g id="ic_support" transform="translate(1405 -2194.521)">
	<g id="Group_2757" transform="translate(-2613.191 2202.809)">
		<path id="Path_10" class="st0" d="M1249.3,13.7c0,7.2-5.8,13-13.1,13c-1.9,0-3.9-0.4-5.6-1.3l5.7-1.9l0,0c0.1,0,0.2,0,0.2,0
			c5.4-0.2,9.7-4.7,9.5-10.1c-0.2-5.3-4.5-9.5-9.8-9.5c-0.1,0-0.2,0-0.3,0c-0.2,0-0.3,0-0.5,0c-5.4,0.4-9.5,5.1-9.1,10.6
			c0.2,3.2,2.1,6.2,4.9,7.8l-0.7,3.2c-6.5-3.1-9.2-10.9-6.1-17.4c2.2-4.5,6.7-7.4,11.7-7.4l0,0C1243.4,0.7,1249.3,6.5,1249.3,13.7z"
			/>
		<path id="Path_11" class="st0" d="M1238.5,18.5c0.8,0.4,1.8,0.3,2.5-0.3c0.4-0.6,0.5-1,0.2-1.3l-2-1.3c-0.2-0.1-0.5-0.1-0.7,0
			c-0.8,0.7-1.3,0.5-1.3,0.5c-0.5,0-3-2.8-3-2.8c-0.2-0.2-0.3-0.6-0.2-0.8l0.5-0.7c0.2-0.2,0.2-0.5,0-0.8l-1.2-1.8
			c-0.3-0.5-0.7-0.3-0.7-0.3c-0.4,0.1-0.7,0.3-1,0.5c0,0-2.3,1.5,3,6.8C1235.8,17.1,1237,17.9,1238.5,18.5z"/>
	</g>
	<g id="Group_2759" transform="translate(-2614.813 2203.592)">
		<g id="Group_2756" transform="translate(1233.324 -9.174)">
			<path id="Path_14" class="st1" d="M19.2,0l13.4,14.9v21.5L0.4,0H19.2z"/>
			<g class="st2">
				<path class="st0" d="M16.3,11.7l-0.9-1L16.8,6l-3.1,2.8l-0.9-1l4.8-4.3l0.9,1l-1.4,4.7l3.1-2.8l0.9,1L16.3,11.7z"/>
				<path class="st0" d="M18.4,14.2c-0.5-0.5-0.7-1.1-0.7-1.7c0-0.6,0.3-1.2,0.8-1.6l0.1-0.1c0.4-0.3,0.7-0.5,1.1-0.7
					c0.4-0.1,0.8-0.1,1.2,0c0.4,0.1,0.7,0.3,1,0.7c0.4,0.5,0.6,1,0.6,1.6c-0.1,0.6-0.4,1.1-0.9,1.6l-0.4,0.3l-2-2.3
					c-0.2,0.2-0.3,0.5-0.3,0.8s0.1,0.5,0.3,0.8c0.3,0.4,0.7,0.5,1.2,0.5L20.3,15c-0.3,0-0.7,0-1-0.2C19,14.7,18.7,14.5,18.4,14.2z
					 M21.2,11.5c-0.2-0.2-0.4-0.3-0.6-0.3s-0.5,0.1-0.7,0.3l1.2,1.3l0.1-0.1c0.2-0.2,0.3-0.4,0.3-0.6C21.5,11.9,21.4,11.7,21.2,11.5
					z"/>
				<path class="st0" d="M24.3,18l2.7-1.6l0.8,0.9l-4.3,2.3l-0.7-0.8l1.6-2.7l-2.8,1.3l-0.7-0.8l2.7-4.1l0.8,0.9l-1.8,2.5l2.8-1.4
					l0.6,0.7L24.3,18z"/>
			</g>
		</g>
	</g>
</g>
</svg>
